<svg width="546" height="524" viewBox="0 0 546 524" fill="none" xmlns="http://www.w3.org/2000/svg">
<g clip-path="url(#clip0_201_209)">
<path d="M491.304 507.168C493.37 507.297 494.512 504.73 492.949 503.234L492.794 502.616C492.814 502.567 492.835 502.517 492.855 502.468C494.945 497.486 502.025 497.52 504.097 502.509C505.935 506.938 508.276 511.373 508.852 516.055C509.111 518.122 508.995 520.228 508.536 522.256C512.844 512.845 515.111 502.569 515.111 492.235C515.111 489.639 514.969 487.042 514.678 484.452C514.439 482.334 514.11 480.228 513.684 478.142C511.378 466.865 506.385 456.124 499.184 447.152C495.722 445.26 492.835 442.302 491.091 438.756C490.464 437.477 489.973 436.101 489.741 434.7C490.135 434.751 491.226 428.751 490.929 428.383C491.478 427.55 492.461 427.135 493.061 426.322C496.043 422.279 500.152 422.985 502.297 428.48C506.879 430.792 506.923 434.628 504.112 438.317C502.323 440.663 502.077 443.839 500.508 446.351C500.669 446.558 500.837 446.758 500.999 446.965C503.96 450.763 506.521 454.845 508.68 459.134C508.069 454.367 508.97 448.625 510.506 444.924C512.254 440.707 515.531 437.155 518.416 433.509C521.882 429.13 528.99 431.041 529.6 436.592C529.606 436.646 529.612 436.7 529.618 436.753C529.189 436.995 528.769 437.252 528.359 437.523C526.02 439.071 526.828 442.697 529.6 443.125L529.663 443.135C529.508 444.678 529.243 446.209 528.856 447.714C532.557 462.03 524.566 467.244 513.154 467.478C512.902 467.607 512.657 467.737 512.405 467.859C513.561 471.115 514.485 474.454 515.169 477.838C515.783 480.829 516.209 483.851 516.448 486.887C516.745 490.717 516.719 494.567 516.396 498.39L516.416 498.255C517.236 494.044 519.523 490.11 522.842 487.384C527.788 483.322 534.775 481.826 540.111 478.56C542.679 476.988 545.97 479.02 545.522 481.997L545.5 482.14C544.706 482.463 543.931 482.837 543.181 483.257C542.753 483.499 542.333 483.756 541.923 484.027C539.583 485.574 540.392 489.201 543.164 489.629L543.227 489.639C543.272 489.645 543.311 489.652 543.356 489.658C541.993 492.894 540.094 495.897 537.717 498.487C535.403 510.984 525.461 512.17 514.827 508.531H514.82C513.658 513.595 511.959 518.542 509.776 523.257H491.756C491.691 523.057 491.633 522.85 491.575 522.65C493.241 522.753 494.921 522.656 496.561 522.353C495.224 520.712 493.887 519.059 492.55 517.418C492.518 517.386 492.492 517.354 492.466 517.321C491.788 516.482 491.104 515.649 490.425 514.809L490.425 514.808C490.383 512.23 490.692 509.661 491.304 507.168Z" fill="#F2F2F2"/>
<path d="M159.753 522.311C159.753 522.971 160.283 523.501 160.943 523.501H544.233C544.893 523.501 545.423 522.971 545.423 522.311C545.423 521.651 544.893 521.121 544.233 521.121H160.943C160.283 521.121 159.753 521.651 159.753 522.311Z" fill="#CCCCCC"/>
<path d="M217.914 522.994H41.4889C19.977 522.994 2.47559 505.492 2.47559 483.98V104.831C2.47559 83.3188 19.977 65.8174 41.4889 65.8174H217.914C239.425 65.8174 256.927 83.3188 256.927 104.831V483.98C256.927 505.492 239.425 522.994 217.914 522.994Z" fill="#3F3D56"/>
<path d="M256.927 205.281C256.017 205.281 255.276 206.021 255.276 206.931V259.746C255.276 260.656 256.017 261.396 256.927 261.396C257.837 261.396 258.577 260.656 258.577 259.746V206.931C258.577 206.021 257.837 205.281 256.927 205.281Z" fill="#3F3D56"/>
<path d="M264.024 105.303V484.445C264.024 503.17 249.451 518.486 231.023 519.674H231.015C230.743 519.691 230.47 519.707 230.19 519.716C229.703 519.74 229.216 519.749 228.721 519.749C228.721 519.749 226.905 519.617 223.588 519.369C220.237 519.122 215.36 518.75 209.278 518.263C207.455 518.123 205.532 517.966 203.502 517.801C199.458 517.471 195.019 517.108 190.257 516.695C188.359 516.539 186.395 516.365 184.39 516.192C174.14 515.309 162.661 514.277 150.555 513.106C148.509 512.916 146.446 512.718 144.366 512.511C143.821 512.454 143.269 512.404 142.716 512.346C134.084 511.496 17 488.869 17 484.445V105.303C17 85.8031 32.8031 70 52.3032 70H73.3795C76.7465 70 79.4532 72.6242 79.742 75.9829C79.7668 76.2057 79.7915 76.4285 79.8328 76.6513C80.4435 80.0265 83.5381 82.3784 86.971 82.3784H194.053C197.486 82.3784 200.581 80.0265 201.191 76.6513C201.232 76.4285 201.257 76.2057 201.282 75.9829C201.571 72.6242 204.278 70 207.644 70H228.721C248.221 70 264.024 85.8031 264.024 105.303Z" fill="white"/>
<path d="M1.65045 165.67C0.7402 165.67 0 166.41 0 167.32V180.524C0 181.434 0.74021 182.174 1.65045 182.174C2.56069 182.174 3.3009 181.434 3.3009 180.524V167.32C3.3009 166.41 2.56069 165.67 1.65045 165.67Z" fill="#3F3D56"/>
<path d="M1.65045 205.281C0.7402 205.281 0 206.021 0 206.931V232.513C0 233.424 0.74021 234.164 1.65045 234.164C2.56069 234.164 3.3009 233.424 3.3009 232.513V206.931C3.3009 206.021 2.56069 205.281 1.65045 205.281Z" fill="#3F3D56"/>
<path d="M1.65045 241.591C0.7402 241.591 0 242.331 0 243.241V268.823C0 269.734 0.74021 270.474 1.65045 270.474C2.56069 270.474 3.3009 269.734 3.3009 268.823V243.241C3.3009 242.331 2.56069 241.591 1.65045 241.591Z" fill="#3F3D56"/>
<path d="M61.9945 75.3076H30.4311C30.2597 75.3076 30.1208 75.4465 30.1208 75.6178V79.1235C30.1208 79.2949 30.2597 79.4338 30.4311 79.4338H61.9945C62.1658 79.4338 62.3047 79.2949 62.3047 79.1235V75.6178C62.3047 75.4465 62.1658 75.3076 61.9945 75.3076Z" fill="#E6E6E6"/>
<path d="M202.049 79.4339C203.872 79.4339 205.35 77.956 205.35 76.1329C205.35 74.3099 203.872 72.832 202.049 72.832C200.226 72.832 198.748 74.3099 198.748 76.1329C198.748 77.956 200.226 79.4339 202.049 79.4339Z" fill="#E6E6E6"/>
<path d="M211.127 79.4339C212.95 79.4339 214.428 77.956 214.428 76.1329C214.428 74.3099 212.95 72.832 211.127 72.832C209.304 72.832 207.826 74.3099 207.826 76.1329C207.826 77.956 209.304 79.4339 211.127 79.4339Z" fill="#E6E6E6"/>
<path d="M220.204 79.4339C222.027 79.4339 223.505 77.956 223.505 76.1329C223.505 74.3099 222.027 72.832 220.204 72.832C218.381 72.832 216.903 74.3099 216.903 76.1329C216.903 77.956 218.381 79.4339 220.204 79.4339Z" fill="#E6E6E6"/>
<path d="M199.289 298.516H59.2886C57.083 298.516 55.2886 296.721 55.2886 294.516C55.2886 292.31 57.083 290.516 59.2886 290.516H199.289C201.494 290.516 203.289 292.31 203.289 294.516C203.289 296.721 201.494 298.516 199.289 298.516Z" fill="#E6E6E6"/>
<path d="M129.791 453.516C161.823 453.516 187.791 427.548 187.791 395.516C187.791 363.483 161.823 337.516 129.791 337.516C97.7583 337.516 71.7908 363.483 71.7908 395.516C71.7908 427.548 97.7583 453.516 129.791 453.516Z" fill="#6C63FF"/>
<path d="M139.008 376.578C134.114 376.779 128.58 377.115 124.962 380.871C121.819 384.134 121.13 388.976 124.317 392.46C127.513 395.953 132.482 396.426 136.166 399.15C140.491 402.35 139.858 408.68 135.672 411.712C130.736 415.288 124.363 413.621 119.85 410.219C118.694 409.347 117.571 411.299 118.715 412.161C122.758 415.209 128.033 416.906 133.032 415.448C137.544 414.131 141.041 410.453 141.396 405.668C141.566 403.384 140.917 401.067 139.497 399.264C137.998 397.36 135.839 396.189 133.656 395.236C129.899 393.596 123.429 391.473 124.522 386.132C125.846 379.659 133.726 379.045 139.009 378.828C140.451 378.769 140.459 376.518 139.008 376.578Z" fill="#F7F7F7"/>
<path d="M129.928 373.516L129.712 422.909C129.706 424.357 131.956 424.359 131.962 422.909L132.178 373.516C132.184 372.068 129.934 372.066 129.928 373.516Z" fill="#F7F7F7"/>
<path d="M437.086 0H151.126C140.636 0 132.106 8.52997 132.106 19.02V214.98C132.106 225.47 140.636 234 151.126 234H437.086C447.576 234 456.106 225.47 456.106 214.98V19.02C456.106 8.52997 447.576 0 437.086 0Z" fill="white"/>
<path d="M292.791 116.516C310.464 116.516 324.791 102.189 324.791 84.5159C324.791 66.8428 310.464 52.5159 292.791 52.5159C275.118 52.5159 260.791 66.8428 260.791 84.5159C260.791 102.189 275.118 116.516 292.791 116.516Z" fill="#6C63FF"/>
<path d="M298.861 70.2359C294.9 70.3992 290.441 70.6503 287.444 73.5981C284.962 76.0399 284.094 79.8411 286.375 82.7161C288.777 85.7431 292.77 86.3175 295.905 88.2519C297.853 89.4541 299.144 91.2755 299.186 93.6162C299.225 95.8076 298.214 97.8549 296.523 99.2284C292.375 102.598 286.718 101.203 282.794 98.2562C282.022 97.6763 281.273 98.978 282.037 99.5514C285.287 101.992 289.472 103.41 293.516 102.36C297.238 101.393 300.237 98.4644 300.64 94.5514C301.065 90.4271 298.357 87.6189 294.846 86.0078C291.636 84.5353 286.007 82.9662 286.538 78.3914C287.212 72.5748 294.333 71.9225 298.861 71.7359C299.823 71.6962 299.828 70.1961 298.861 70.2359Z" fill="#F7F7F7"/>
<path d="M291.977 67.5157L291.798 108.674C291.793 109.639 293.293 109.64 293.298 108.674L293.477 67.5157C293.482 66.5504 291.982 66.5491 291.977 67.5157Z" fill="#F7F7F7"/>
<path d="M464.98 -1H179.02C168.53 -1 160 7.52997 160 18.02V213.98C160 224.47 168.53 233 179.02 233H464.98C475.47 233 484 224.47 484 213.98V18.02C484 7.52997 475.47 -1 464.98 -1ZM482 213.98C482 223.37 474.37 231 464.98 231H179.02C169.63 231 162 223.37 162 213.98V18.02C162 8.63001 169.63 1 179.02 1H464.98C474.37 1 482 8.63 482 18.02V213.98Z" fill="#3F3D56"/>
<path d="M261.136 19.3501H233.076C231.666 19.3501 230.516 20.5001 230.516 21.9101C230.516 23.3301 231.666 24.4801 233.076 24.4801H261.136C262.546 24.4801 263.696 23.3301 263.696 21.9101C263.696 20.5001 262.546 19.3501 261.136 19.3501Z" fill="#6C63FF"/>
<path d="M308.136 19.3501H280.076C278.666 19.3501 277.516 20.5001 277.516 21.9101C277.516 23.3301 278.666 24.4801 280.076 24.4801H308.136C309.546 24.4801 310.696 23.3301 310.696 21.9101C310.696 20.5001 309.546 19.3501 308.136 19.3501Z" fill="#6C63FF"/>
<path d="M355.136 19.3501H327.076C325.666 19.3501 324.516 20.5001 324.516 21.9101C324.516 23.3301 325.666 24.4801 327.076 24.4801H355.136C356.546 24.4801 357.696 23.3301 357.696 21.9101C357.696 20.5001 356.546 19.3501 355.136 19.3501Z" fill="#6C63FF"/>
<path d="M401.416 134.516H186.796C177.866 134.516 170.606 141.776 170.606 150.706V165.326C170.606 174.256 177.866 181.516 186.796 181.516H401.416C410.346 181.516 417.606 174.256 417.606 165.326V150.706C417.606 141.776 410.346 134.516 401.416 134.516Z" fill="#6C63FF"/>
<path d="M73.1791 211.492L64.9492 207.593C68.3248 212.304 71.2334 219.661 72.7906 225.516C75.4271 220.062 79.6773 213.39 83.8843 209.404L75.1862 211.641C80.546 185.373 100.705 166.516 123.791 166.516V164.516C99.6774 164.516 78.6516 184.163 73.1791 211.492Z" fill="#3F3D56"/>
<path d="M111.058 251.516H59.0583C56.8528 251.516 55.0583 249.721 55.0583 247.516C55.0583 245.31 56.8528 243.516 59.0583 243.516H111.058C113.264 243.516 115.058 245.31 115.058 247.516C115.058 249.721 113.264 251.516 111.058 251.516Z" fill="#E6E6E6"/>
<path d="M456.979 238.488L456.454 279.327L446.293 315.732L438.17 312.702L441.776 279.333L441.302 234.176L456.979 238.488Z" fill="#FFB6B6"/>
<path d="M446.258 321.603C447.211 316.368 445.464 311.665 442.356 311.099C439.248 310.533 435.955 314.318 435.002 319.553C434.049 324.788 435.796 329.491 438.904 330.056C442.012 330.622 445.305 326.837 446.258 321.603Z" fill="#FFB6B6"/>
<path d="M444.648 189.861C444.648 189.861 462.055 190.101 462.041 199.348C462.032 204.569 460.911 251.971 457.791 280.768C455.385 302.974 450.791 308.768 450.791 308.768L439.791 283.768L444.648 189.861Z" fill="#E6E6E6"/>
<path d="M444.2 273.298H385.413C390.34 262.303 393.37 251.831 388.634 243.502L444.2 240.281C441.424 251.525 441.084 262.56 444.2 273.298Z" fill="#FFB6B6"/>
<path d="M436.953 175.856L413.599 174.245L403.935 186.325L399.036 187.216C391.692 188.551 386.463 195.105 386.791 202.562L388.696 245.874L444.517 249.945L457.891 193.542L441.784 187.13L436.953 175.856Z" fill="#E6E6E6"/>
<path d="M294.531 188.922C296.188 190.412 297.37 192.154 297.995 193.842L314.677 207.045L308.162 214.799L291.942 200.571C290.197 200.128 288.34 199.135 286.683 197.645C282.898 194.239 281.586 189.526 283.753 187.118C285.92 184.709 290.745 185.517 294.531 188.922Z" fill="#FFB6B6"/>
<path d="M412.468 200.037L348.551 243.196L302.735 211.312L309.613 198.852L345.673 219.809L378.928 194.274C390.77 183.151 405.612 185.307 412.468 200.037Z" fill="#E6E6E6"/>
<path d="M423.891 170.628C433.46 170.628 441.217 162.871 441.217 153.302C441.217 143.733 433.46 135.976 423.891 135.976C414.322 135.976 406.565 143.733 406.565 153.302C406.565 162.871 414.322 170.628 423.891 170.628Z" fill="#FFB6B6"/>
<path d="M447.441 149.046V152.406L427.901 146.906L413.251 149.976C413.081 147.746 412.421 145.556 411.321 143.616C412.086 146.727 412.172 149.134 411.361 150.376L409.391 150.786C409.071 149.916 408.451 149.156 407.641 148.696C407.561 148.646 407.461 148.606 407.371 148.636C407.231 148.686 407.221 148.866 407.221 149.006C407.241 149.746 407.261 150.486 407.291 151.226L401.631 152.406V149.046C396.201 136.828 410.513 126.255 424.541 126.146C430.871 126.096 436.591 128.706 440.741 132.846C444.881 136.996 447.441 142.716 447.441 149.046Z" fill="#2F2E41"/>
<path d="M458.433 188.444L456.958 188.322C457.063 187.839 457.168 187.363 457.264 186.88C458.081 182.831 456.281 177.676 456.149 173.785C455.455 177.896 456.642 182.953 455.413 186.856C455.276 187.29 449.937 190.088 449.791 190.516C443.881 188.355 437.728 181.45 430.759 185.483C426.638 187.868 421.936 186.822 417.256 185.73C416.098 185.46 415.937 179.74 414.791 179.516C412.738 179.113 409.723 184.313 407.791 184.516L415.791 153.516C415.791 136.652 414.229 118.958 435.591 124.921C440.964 126.421 446.281 127.597 450.247 132.031C454.212 136.472 457.035 142.677 458.036 149.744C458.639 154.007 462.403 168.483 458.433 188.444Z" fill="#2F2E41"/>
<path d="M444.638 500.18L435.102 500.405L429.786 457.561L443.859 457.228L444.638 500.18Z" fill="#FFB7B7"/>
<path d="M411.919 520.076C411.919 521.687 413.063 522.993 414.473 522.993H433.402C433.402 522.993 435.265 515.506 442.86 512.283L443.384 522.993H453.149L451.966 505.772C451.966 505.772 454.578 496.558 449.153 491.848C443.728 487.138 448.122 487.794 448.122 487.794L445.988 477.135L431.232 478.87L431.124 495.602L423.963 512.21L413.46 517.399C412.525 517.861 411.919 518.913 411.919 520.076Z" fill="#2F2E41"/>
<path d="M415.625 493.198L406.457 495.836L390.443 455.743L403.972 451.85L415.625 493.198Z" fill="#FFB7B7"/>
<path d="M389.026 520.746C389.434 522.304 390.872 523.277 392.236 522.919L410.545 518.116C410.545 518.116 410.447 510.4 416.976 505.356L420.201 515.583L429.646 513.105L424.131 496.747C424.131 496.747 424.32 487.172 417.877 483.993C411.435 480.814 415.851 480.333 415.851 480.333L411.082 470.564L397.25 475.987L401.391 492.199L398.679 510.081L389.836 517.765C389.049 518.449 388.73 519.62 389.026 520.746Z" fill="#2F2E41"/>
<path d="M438.791 270.768L444.791 272.768C454.172 290.093 458.149 313.101 457.622 340.846L446.964 465.457H429.527L416.767 326.635L394.267 378.74L410.729 465.457L394.267 467.136L361.11 376.964L384.202 272.162L438.791 270.768Z" fill="#2F2E41"/>
</g>
<defs>
<clipPath id="clip0_201_209">
<rect width="545.563" height="523.501" fill="white"/>
</clipPath>
</defs>
</svg>
